<?xml version="1.0" standalone="no"?>
<!DOCTYPE svg PUBLIC "-//W3C//DTD SVG 20010904//EN"
 "http://www.w3.org/TR/2001/REC-SVG-20010904/DTD/svg10.dtd">
<svg version="1.0" xmlns="http://www.w3.org/2000/svg"
 width="1042.000000pt" height="1042.000000pt" viewBox="0 0 1042.000000 1042.000000"
 preserveAspectRatio="xMidYMid meet">
<metadata>
Created by potrace 1.14, written by Peter Selinger 2001-2017
</metadata>
<g transform="translate(0.000000,1042.000000) scale(0.100000,-0.100000)"
fill="#000000" stroke="none">
<path d="M9229 9499 c-128 -19 -246 -124 -279 -249 -17 -62 -18 -502 -1 -551
14 -44 48 -77 94 -93 50 -17 508 -14 562 4 56 18 134 75 173 125 62 81 67 111
67 400 0 242 -1 262 -20 293 -11 18 -36 43 -55 55 -32 20 -47 21 -265 22 -126
0 -251 -3 -276 -6z"/>
<path d="M6326 9380 c-101 -32 -172 -95 -219 -197 -21 -46 -22 -61 -22 -319
l0 -270 25 -37 c23 -33 54 -55 90 -64 30 -7 466 -6 510 2 119 20 226 115 265
233 24 75 26 532 2 578 -19 36 -55 70 -87 82 -14 5 -133 9 -265 9 -204 0 -250
-2 -299 -17z"/>
<path d="M7550 8682 c-62 -9 -166 -46 -223 -79 -53 -32 -155 -124 -193 -174
-21 -28 -60 -104 -77 -150 -18 -46 -22 -63 -33 -129 -4 -19 -7 -222 -7 -450 0
-485 0 -487 87 -573 85 -85 81 -85 598 -83 396 2 449 4 503 20 200 61 365 217
424 404 32 99 34 139 34 577 0 401 -1 423 -20 467 -28 61 -81 118 -140 148
l-48 25 -440 1 c-242 0 -451 -2 -465 -4z"/>
<path d="M4117 8454 c-1 -1 -92 -5 -202 -8 -110 -4 -216 -8 -235 -10 -19 -2
-73 -7 -120 -11 -123 -9 -252 -22 -305 -31 -16 -2 -46 -6 -65 -8 -30 -4 -184
-28 -260 -41 -27 -5 -215 -43 -240 -49 -634 -152 -1059 -363 -1307 -648 -215
-247 -422 -702 -559 -1226 -25 -96 -47 -181 -49 -190 -16 -68 -65 -308 -70
-339 -5 -37 -14 -89 -21 -128 -5 -23 -33 -212 -40 -265 -11 -84 -14 -108 -20
-165 -3 -33 -7 -71 -9 -85 -2 -14 -7 -65 -11 -115 -3 -49 -8 -98 -10 -108 -18
-99 -26 -927 -11 -1152 5 -66 10 -140 12 -165 3 -49 14 -159 20 -200 2 -14 7
-54 10 -90 4 -36 8 -72 10 -80 3 -15 13 -79 21 -135 40 -269 131 -620 216
-835 135 -341 303 -596 498 -752 191 -154 489 -301 840 -415 94 -30 460 -124
535 -137 17 -3 80 -14 140 -25 124 -22 174 -30 225 -37 92 -12 197 -25 220
-29 39 -6 218 -23 315 -30 378 -28 1028 -28 1385 0 133 10 207 16 230 20 14 2
52 7 85 10 33 3 71 7 85 9 14 2 48 7 75 11 94 12 120 16 175 25 30 5 71 12 90
15 19 3 42 8 50 10 8 2 33 6 55 10 22 3 92 17 155 31 63 14 121 27 130 29 76
17 277 74 384 110 72 25 138 47 146 49 38 11 225 93 315 138 351 176 545 367
728 719 83 158 200 458 232 597 3 9 16 60 29 112 14 52 27 106 30 120 3 14 14
67 25 118 11 51 23 114 27 140 3 26 8 49 9 52 3 5 9 42 30 195 2 11 6 45 10
75 3 30 8 69 10 85 5 37 12 115 20 220 4 44 8 96 11 115 4 43 16 403 17 520 0
116 -13 517 -18 559 -2 19 -7 72 -10 119 -3 46 -7 103 -10 126 -2 22 -7 66
-10 96 -11 107 -36 297 -51 380 -2 14 -9 54 -14 89 -15 88 -45 239 -70 346
-12 50 -24 101 -27 115 -16 78 -122 430 -132 442 -4 4 -172 8 -374 8 -402 1
-410 2 -497 61 -57 39 -104 100 -126 164 -16 45 -18 100 -18 517 -1 257 -4
469 -6 471 -3 3 -41 20 -86 40 -269 117 -650 232 -974 293 -14 3 -57 11 -95
19 -39 8 -86 16 -105 19 -19 3 -62 10 -95 15 -33 6 -78 13 -100 15 -22 3 -56
8 -75 11 -43 6 -118 14 -185 20 -27 2 -68 7 -90 10 -141 17 -499 36 -758 39
-76 0 -139 0 -140 0z"/>
<path d="M8687 7134 c-85 -20 -166 -70 -235 -144 -32 -35 -86 -132 -99 -180
-13 -46 -15 -672 -3 -715 12 -44 48 -89 95 -120 29 -19 48 -20 391 -20 l360 0
80 39 c131 65 223 179 252 313 5 23 9 189 8 370 -2 285 -4 332 -19 359 -23 42
-55 70 -107 93 -42 18 -68 19 -355 19 -222 -1 -326 -5 -368 -14z"/>
</g>
</svg>
