<svg width="72" height="62" viewBox="0 0 72 62" fill="none" xmlns="http://www.w3.org/2000/svg">
<path d="M62.5924 0.995768C64.2396 -0.250934 66.5229 -0.0634012 68.072 1.30341C70.1559 3.14215 70.141 6.38398 68.1502 8.32317C65.6593 10.7495 63.519 13.1174 61.7291 15.4269C59.1612 18.7652 57.5348 21.2904 56.85 23.0023C56.1653 24.7143 55.5233 26.7686 54.9241 29.1654L55.4377 29.9357C61.1727 29.9357 65.367 31.1769 68.0205 33.6592C70.674 36.1416 72.0008 39.9935 72.0008 45.2149C72.0008 49.238 70.5457 52.8759 67.6353 56.1286C64.8106 59.3813 61.2583 61.0077 56.9784 61.0077C52.0994 61.0077 48.0335 59.6381 44.7808 56.899C41.5281 54.1599 39.9017 49.7516 39.9017 43.6742C39.9017 35.628 42.384 27.325 47.3487 18.7652C51.6994 11.3175 56.7806 5.39432 62.5924 0.995768ZM22.9573 0.995768C24.6045 -0.250934 26.8878 -0.0634007 28.4369 1.30341C30.5208 3.14215 30.5055 6.38359 28.5149 8.32302C26.0488 10.7258 23.9513 13.051 22.2224 15.2985C19.6545 18.6368 17.9853 21.2048 17.2149 23.0023C16.5302 24.7999 15.8882 26.8542 15.289 29.1654L15.8026 29.9357C21.5376 29.9357 25.7319 31.1769 28.3854 33.6592C31.039 36.1416 32.3657 39.9935 32.3657 45.2149C32.3657 49.238 30.9106 52.8759 28.0002 56.1286C25.1755 59.3813 21.6232 61.0077 17.3433 61.0077C12.4643 61.0077 8.39838 59.6381 5.14567 56.899C1.89296 54.1599 0.266602 49.7516 0.266602 43.6742C0.266602 35.628 2.74893 27.325 7.7136 18.7652C12.0643 11.3175 17.1455 5.39432 22.9573 0.995768Z" fill="#E2F1EA"/>
</svg>
