<svg width="87" height="87" viewBox="0 0 87 87" fill="none" xmlns="http://www.w3.org/2000/svg">
<g clip-path="url(#clip0_540_541)">
<path d="M85.2993 21.8102L44.3481 7.36153C43.7994 7.16782 43.2008 7.16782 42.6521 7.36153L1.70092 21.8102C0.682748 22.1694 0.00136141 23.1311 2.03686e-06 24.2108C-0.00135734 25.2905 0.67782 26.2538 1.69514 26.6154L42.6463 41.1738C42.9224 41.272 43.2113 41.3211 43.5 41.3211C43.7889 41.3211 44.0776 41.272 44.3537 41.1738L85.3049 26.6154C86.3222 26.2538 87.0012 25.2905 87 24.2108C86.9986 23.1311 86.3173 22.1694 85.2993 21.8102Z" fill="#EF4347"/>
<path d="M80.8787 55.8319V33.5993L75.781 35.4115V55.8319C74.2456 56.7156 73.2109 58.3715 73.2109 60.2704C73.2109 62.1691 74.2456 63.8252 75.781 64.7089V77.2349C75.781 78.6425 76.9222 79.7837 78.3298 79.7837C79.7375 79.7837 80.8787 78.6425 80.8787 77.2349V64.7091C82.4141 63.8255 83.4487 62.1693 83.4487 60.2706C83.4487 58.3717 82.4142 56.7156 80.8787 55.8319Z" fill="#EF4347"/>
<path d="M43.4997 46.4187C42.6248 46.4187 41.7631 46.2701 40.9385 45.9769L17.917 37.7927V49.0089C17.917 51.7529 20.7797 54.0736 26.4255 55.906C31.3466 57.5033 37.4104 58.3829 43.4997 58.3829C49.5891 58.3829 55.6527 57.5033 60.574 55.906C66.2198 54.0736 69.0825 51.7529 69.0825 49.0089V37.7927L46.0612 45.9769C45.2363 46.2701 44.3747 46.4187 43.4997 46.4187Z" fill="#EF4347"/>
</g>
<defs>
<clipPath id="clip0_540_541">
<rect width="87" height="87" fill="white"/>
</clipPath>
</defs>
</svg>
