<svg width="63" height="64" viewBox="0 0 63 64" fill="none" xmlns="http://www.w3.org/2000/svg">
<g clip-path="url(#clip0_540_538)">
<path d="M49.875 10.6667H46.9875C46.3782 7.6571 44.7663 4.95292 42.4233 3.00991C40.0803 1.06691 37.1495 0.00387873 34.125 0L28.875 0C25.8505 0.00387873 22.9197 1.06691 20.5767 3.00991C18.2337 4.95292 16.6218 7.6571 16.0125 10.6667H13.125C9.64531 10.6709 6.30934 12.077 3.84883 14.5766C1.38832 17.0762 0.00416813 20.4651 0 24L0 32H63V24C62.9958 20.4651 61.6117 17.0762 59.1512 14.5766C56.6907 12.077 53.3547 10.6709 49.875 10.6667ZM21.483 10.6667C22.024 9.11224 23.0245 7.76558 24.3477 6.8109C25.6708 5.85622 27.2521 5.34017 28.875 5.33333H34.125C35.7479 5.34017 37.3292 5.85622 38.6523 6.8109C39.9755 7.76558 40.976 9.11224 41.517 10.6667H21.483Z" fill="#EF4347"/>
<path d="M34.125 40C34.125 40.7072 33.8484 41.3855 33.3562 41.8856C32.8639 42.3857 32.1962 42.6666 31.5 42.6666C30.8038 42.6666 30.1361 42.3857 29.6438 41.8856C29.1516 41.3855 28.875 40.7072 28.875 40V37.3333H0V50.6666C0.00416813 54.2016 1.38832 57.5905 3.84883 60.0901C6.30934 62.5896 9.64531 63.9957 13.125 64H49.875C53.3547 63.9957 56.6907 62.5896 59.1512 60.0901C61.6117 57.5905 62.9958 54.2016 63 50.6666V37.3333H34.125V40Z" fill="#EF4347"/>
</g>
<defs>
<clipPath id="clip0_540_538">
<rect width="63" height="64" fill="white"/>
</clipPath>
</defs>
</svg>
