<svg width="68" height="72" viewBox="0 0 68 72" fill="none" xmlns="http://www.w3.org/2000/svg">
<path fill-rule="evenodd" clip-rule="evenodd" d="M12.8278 22.587C13.9113 22.3252 15.0188 22.1933 16.1297 22.194C24.9272 22.194 32.0569 30.342 32.0569 40.389C32.0569 50.439 24.9272 58.587 16.1297 58.587C7.33221 58.587 0.199707 50.442 0.199707 40.389C0.199707 40.095 0.205332 39.798 0.219395 39.504H0.199707C0.199707 24.339 10.9997 12 24.2747 12V18.108C19.9688 18.108 15.9975 19.782 12.8278 22.587ZM48.4735 22.587C49.5366 22.329 50.6391 22.194 51.7697 22.194C60.5672 22.194 67.6997 30.342 67.6997 40.389C67.6997 50.439 60.5672 58.587 51.7697 58.587C42.9722 58.587 35.8425 50.442 35.8425 40.389C35.8425 40.095 35.8481 39.798 35.8622 39.504H35.8425C35.8425 24.339 46.6425 12 59.9175 12V18.108C55.6088 18.108 51.6431 19.782 48.4735 22.587Z" fill="#1AB3F4"/>
</svg>
