<svg width="124" height="38" viewBox="0 0 124 38" fill="none" xmlns="http://www.w3.org/2000/svg">
<g clip-path="url(#clip0_240_10749)">
<g clip-path="url(#clip1_240_10749)">
<path d="M118.62 37.1477H5.19697C2.70165 37.1477 0.660034 35.1061 0.660034 32.6108V5.38916C0.660034 2.89384 2.70165 0.852226 5.19697 0.852226H118.62C121.116 0.852226 123.157 2.89384 123.157 5.38916V32.6108C123.157 35.1061 121.116 37.1477 118.62 37.1477Z" fill="white"/>
<path d="M118.62 0.852226H5.19697C2.70165 0.852226 0.660034 2.89384 0.660034 5.38916V32.6108C0.660034 35.1061 2.70165 37.1477 5.19697 37.1477H118.62C121.116 37.1477 123.157 35.1061 123.157 32.6108V5.38916C123.157 2.89384 121.116 0.852226 118.62 0.852226ZM118.62 1.57814C120.722 1.57814 122.431 3.28801 122.431 5.38916V32.6108C122.431 34.7123 120.722 36.4222 118.62 36.4222H5.19697C3.09582 36.4222 1.38594 34.7123 1.38594 32.6108V5.38916C1.38594 3.28801 3.09582 1.57814 5.19697 1.57814H118.62Z" fill="black"/>
<path d="M19.3673 18.3862L9.70703 28.6395C9.70739 28.6416 9.70812 28.6434 9.70848 28.6455C10.0047 29.7588 11.0216 30.5786 12.2285 30.5786C12.711 30.5786 13.1639 30.4482 13.5524 30.2192L13.5832 30.2011L24.4571 23.9265L19.3673 18.3862Z" fill="#EB3131"/>
<path d="M29.1407 16.6404L29.1314 16.634L24.4369 13.9126L19.1479 18.6189L24.4553 23.9255L29.1251 21.2311C29.9438 20.7891 30.4995 19.9261 30.4995 18.9308C30.4995 17.9426 29.9512 17.0838 29.1407 16.6404Z" fill="#F6B60B"/>
<path d="M9.70664 9.17936C9.64857 9.3935 9.61804 9.6178 9.61804 9.85072V27.9686C9.61804 28.2011 9.6482 28.4262 9.707 28.6395L19.6997 18.6486L9.70664 9.17936Z" fill="#5778C5"/>
<path d="M19.4385 18.9094L24.4386 13.9108L13.5771 7.61347C13.1823 7.37701 12.7216 7.24054 12.2285 7.24054C11.0216 7.24054 10.0034 8.0618 9.70703 9.17649C9.70666 9.17758 9.70667 9.17831 9.70667 9.17931L19.4385 18.9094Z" fill="#3BAD49"/>
</g>
<path d="M43.6706 10.147C43.6706 10.9072 43.4455 11.5126 42.9946 11.9642C42.4825 12.5012 41.815 12.7699 40.9944 12.7699C40.2086 12.7699 39.5405 12.4977 38.9911 11.9525C38.4407 11.4077 38.166 10.7322 38.166 9.92615C38.166 9.11975 38.4407 8.44456 38.9911 7.89941C39.5405 7.35461 40.2086 7.08203 40.9944 7.08203C41.3843 7.08203 41.7576 7.15825 42.1121 7.31033C42.4665 7.46277 42.7508 7.66512 42.9635 7.91855L42.4849 8.39738C42.1245 7.96674 41.6282 7.75159 40.9944 7.75159C40.4213 7.75159 39.9258 7.95294 39.5076 8.35591C39.0893 8.75934 38.8802 9.28245 38.8802 9.92615C38.8802 10.5698 39.0893 11.093 39.5076 11.4964C39.9258 11.8993 40.4213 12.1007 40.9944 12.1007C41.6024 12.1007 42.1092 11.8983 42.515 11.4928C42.7784 11.2287 42.9308 10.8616 42.9715 10.3901H40.9944V9.73614H43.6327C43.6582 9.87833 43.6706 10.0148 43.6706 10.147Z" fill="black"/>
<path d="M43.6706 10.1471H43.5799C43.5792 10.89 43.3622 11.467 42.9305 11.9002L42.9295 11.9009L42.9291 11.9016C42.4332 12.4201 41.7959 12.6782 40.9945 12.6792C40.2296 12.6782 39.5895 12.4173 39.0549 11.8885C38.5216 11.3585 38.2578 10.7117 38.2568 9.92623C38.2578 9.14043 38.5216 8.49392 39.0549 7.96437C39.5895 7.43518 40.2296 7.17394 40.9945 7.17285C41.3727 7.17285 41.7328 7.24662 42.0763 7.39371C42.4201 7.54189 42.6916 7.73607 42.894 7.97716L42.9635 7.91863L42.8994 7.85448L42.4208 8.33367L42.4849 8.39746L42.5548 8.33939C42.1776 7.88742 41.6482 7.65958 40.9945 7.66094C40.4001 7.66021 39.8773 7.87254 39.4448 8.29084C39.0082 8.71051 38.7888 9.26302 38.7895 9.92623C38.7888 10.5894 39.0082 11.1419 39.4448 11.5616C39.8773 11.9799 40.4001 12.1922 40.9945 12.1915C41.6226 12.1926 42.1578 11.9796 42.5792 11.5571C42.8607 11.2749 43.0202 10.884 43.062 10.398L43.0705 10.2994H41.0852V9.82696H43.6327V9.73622L43.5433 9.75219C43.5682 9.88975 43.5799 10.0205 43.5799 10.1471H43.6706H43.7614C43.7614 10.0092 43.7486 9.86743 43.722 9.71998L43.7086 9.64548H40.9037V10.3902V10.4809H42.9716V10.3902L42.8812 10.3824C42.8412 10.839 42.6958 11.1828 42.4509 11.4288C42.061 11.8172 41.5825 12.009 40.9945 12.01C40.4426 12.0093 39.9744 11.8193 39.5707 11.4312C39.1709 11.0445 38.972 10.5508 38.971 9.92623C38.972 9.30167 39.1709 8.80796 39.5707 8.42124C39.9744 8.03315 40.4426 7.84314 40.9945 7.84241C41.608 7.84387 42.0714 8.04658 42.4155 8.45599L42.4793 8.53185L43.0277 7.98279L43.0865 7.92399L43.0329 7.86047C42.81 7.5947 42.513 7.38373 42.1479 7.22711C41.7821 7.07005 41.3961 6.99138 40.9945 6.99138C40.1878 6.99065 39.4917 7.27421 38.927 7.83534C38.3602 8.39538 38.0746 9.09933 38.0753 9.92623C38.0746 10.7528 38.3602 11.4571 38.9274 12.0175C39.4917 12.5782 40.1878 12.8614 40.9945 12.8607C41.8345 12.8614 42.5314 12.5824 43.0602 12.027L42.9946 11.9643L43.0588 12.0285C43.5288 11.5588 43.762 10.9244 43.7614 10.1471H43.6706Z" fill="black"/>
<path d="M47.853 7.87295H45.3736V9.59916H47.6095V10.2534H45.3736V11.9796H47.853V12.6484H44.6747V7.20411H47.853V7.87295Z" fill="black"/>
<path d="M47.853 7.87291V7.78217H45.2829V9.68986H47.5188V10.1623L45.2829 10.1626V12.0703H47.7623V12.5577H44.7655V7.29481H47.7623V7.87291H47.853V7.78217V7.87291H47.9438V7.20408V7.11334H44.584V12.7391H47.9438V11.9796V11.8888H45.4644V10.3441H47.7003V9.59912V9.50838H45.4644V7.96365H47.9438V7.87291H47.853Z" fill="black"/>
<path d="M50.8031 12.6484H50.103V7.87295H48.5824V7.20411H52.3237V7.87295H50.8031V12.6484Z" fill="black"/>
<path d="M50.8031 12.6484V12.5577H50.1938V7.78217H48.6732V7.29481H52.2329V7.78217H50.7123V12.6484H50.8031V12.5577V12.6484H50.8938V7.96365H52.4144V7.20408V7.11334H48.4917V7.87291V7.96365H50.0123V12.7391H50.8031H50.8938V12.6484H50.8031Z" fill="black"/>
<path d="M55.0306 12.6484V7.20411H55.73V12.6484H55.0306Z" fill="black"/>
<path d="M55.0306 12.6484H55.1213V7.29481H55.6391V12.5577H55.0306V12.6484H55.1213H55.0306V12.7391H55.7299H55.8206V7.11334H55.0306H54.9398V12.7391H55.0306V12.6484Z" fill="black"/>
<path d="M58.8331 12.6484H58.1331V7.87295H56.6125V7.20411H60.3537V7.87295H58.8331V12.6484Z" fill="black"/>
<path d="M58.8331 12.6484V12.5577H58.2238V7.78217H56.7033V7.29481H60.263V7.78217H58.7424V12.6484H58.8331V12.5577V12.6484H58.9239V7.96365H60.4445V7.20408V7.11334H56.5219V7.87291V7.96365H58.0424V12.7391H58.8331H58.9239V12.6484H58.8331Z" fill="black"/>
<path d="M63.9606 11.4889C64.3636 11.8969 64.8567 12.1007 65.4397 12.1007C66.0228 12.1007 66.5162 11.8969 66.9185 11.4889C67.3218 11.081 67.5239 10.5595 67.5239 9.92615C67.5239 9.29279 67.3218 8.77132 66.9185 8.36335C66.5162 7.95539 66.0228 7.75159 65.4397 7.75159C64.8567 7.75159 64.3636 7.95539 63.9606 8.36335C63.5583 8.77132 63.3563 9.29279 63.3563 9.92615C63.3563 10.5595 63.5583 11.081 63.9606 11.4889ZM67.436 11.9447C66.9007 12.4951 66.2351 12.7699 65.4397 12.7699C64.6436 12.7699 63.9783 12.4951 63.4442 11.9447C62.9086 11.3949 62.6421 10.7219 62.6421 9.92615C62.6421 9.13037 62.9086 8.45727 63.4442 7.90757C63.9783 7.35706 64.6436 7.08203 65.4397 7.08203C66.2309 7.08203 66.8947 7.35851 67.4324 7.91111C67.9694 8.46371 68.2381 9.13536 68.2381 9.92615C68.2381 10.7219 67.9701 11.3949 67.436 11.9447Z" fill="black"/>
<path d="M63.9605 11.489L63.896 11.5528C64.314 11.9771 64.8353 12.1926 65.4397 12.1915C66.0436 12.1926 66.5657 11.9771 66.983 11.5528C67.4036 11.1282 67.6152 10.5787 67.6146 9.92623C67.6152 9.27373 67.4036 8.7243 66.983 8.29965C66.5657 7.87535 66.0436 7.65985 65.4397 7.66094C64.8353 7.65985 64.314 7.87535 63.896 8.29965C63.4763 8.7243 63.2644 9.27373 63.2655 9.92623C63.2644 10.5787 63.4763 11.1282 63.896 11.5528L63.9605 11.489L64.0251 11.4252C63.6401 11.0335 63.4477 10.5408 63.447 9.92623C63.4477 9.31165 63.6401 8.81894 64.0251 8.42723C64.4135 8.0356 64.8774 7.8435 65.4397 7.84241C66.0014 7.8435 66.4665 8.0356 66.8539 8.42723C67.2396 8.81894 67.432 9.31165 67.4327 9.92623C67.432 10.5408 67.2396 11.0335 66.8539 11.4252C66.4665 11.8169 66.0014 12.009 65.4397 12.01C64.8774 12.009 64.4135 11.8169 64.0251 11.4252L63.9605 11.489ZM67.4359 11.9448L67.371 11.8817C66.8507 12.4148 66.2145 12.6782 65.4397 12.6792C64.6645 12.6782 64.0282 12.4148 63.5089 11.8817L63.5065 11.8789L63.5089 11.8817C62.9897 11.3468 62.7335 10.7018 62.7327 9.92623C62.7335 9.15068 62.9897 8.50562 63.5089 7.97072C64.0282 7.43763 64.6645 7.17394 65.4397 7.17285C66.2095 7.17394 66.8443 7.43872 67.3675 7.97462C67.8885 8.51197 68.1462 9.15604 68.1473 9.92623C68.1462 10.7018 67.8893 11.3468 67.371 11.8817L67.4359 11.9448L67.5012 12.0079C68.0512 11.4429 68.3294 10.7421 68.3288 9.92623C68.3294 9.11493 68.0501 8.41561 67.4975 7.84813C66.9447 7.27847 66.2521 6.99038 65.4397 6.99138C64.623 6.99038 63.9283 7.27711 63.3789 7.84459V7.84423C62.8277 8.40953 62.5505 9.1103 62.5513 9.92623C62.5505 10.7421 62.8277 11.4429 63.3789 12.0082L63.3813 12.0108L63.3789 12.0079C63.9283 12.5753 64.623 12.8614 65.4397 12.8607C66.256 12.8614 66.9506 12.5753 67.5012 12.0079L67.4359 11.9448Z" fill="black"/>
<path d="M69.2198 12.6484V7.20411H70.0713L72.7172 11.4394H72.7473L72.7172 10.3902V7.20411H73.4172V12.6484H72.6871L69.9188 8.20787H69.8887L69.9188 9.25744V12.6484H69.2198Z" fill="black"/>
<path d="M69.2199 12.6484H69.3106V7.29481H70.0209L72.6669 11.5301H72.7474H72.8405L72.808 10.3888V7.29481H73.3265V12.5577H72.7375L69.9692 8.11709H69.8887H69.7955L69.8281 9.25885V12.5577H69.2199V12.6484H69.3106H69.2199V12.7391H69.9188H70.0096V9.25595L69.9795 8.20538L69.8887 8.20783V8.29857H69.9188V8.20783L69.8419 8.2561L72.6367 12.7391H73.4173H73.508V7.11334H72.7172H72.6265V10.3913L72.6566 11.4418L72.7474 11.4394V11.3487H72.7172V11.4394L72.7942 11.3912L70.1216 7.11334H69.2199H69.1292V12.7391H69.2199V12.6484Z" fill="black"/>
<path d="M97.6761 28.0739H99.3693V16.7305H97.6761V28.0739ZM112.927 20.8166L110.986 25.7346H110.928L108.913 20.8166H107.089L110.11 27.6903L108.388 31.5138H110.154L114.809 20.8166H112.927ZM103.325 26.7855C102.769 26.7855 101.996 26.5083 101.996 25.8221C101.996 24.9466 102.96 24.6109 103.791 24.6109C104.536 24.6109 104.885 24.7715 105.338 24.9906C105.206 26.0412 104.302 26.7855 103.325 26.7855ZM103.529 20.5684C102.303 20.5684 101.033 21.1086 100.508 22.3053L102.011 22.9326C102.332 22.3053 102.93 22.1007 103.558 22.1007C104.433 22.1007 105.324 22.6264 105.338 23.5604V23.677C105.031 23.5018 104.375 23.2392 103.572 23.2392C101.953 23.2392 100.303 24.1292 100.303 25.793C100.303 27.3108 101.631 28.2887 103.119 28.2887C104.258 28.2887 104.885 27.7779 105.28 27.1797H105.338V28.0551H106.972V23.706C106.972 21.6924 105.47 20.5684 103.529 20.5684ZM93.0647 22.1975H90.6565V18.3092H93.0647C94.3305 18.3092 95.0492 19.3573 95.0492 20.2533C95.0492 21.1324 94.3305 22.1975 93.0647 22.1975ZM93.0212 16.7305H88.9642V28.0739H90.6565V23.7762H93.0212C94.8977 23.7762 96.7424 22.4176 96.7424 20.2533C96.7424 18.0891 94.8977 16.7305 93.0212 16.7305ZM70.8982 26.7876C69.7285 26.7876 68.7491 25.8082 68.7491 24.4631C68.7491 23.1039 69.7285 22.1096 70.8982 22.1096C72.053 22.1096 72.9593 23.1039 72.9593 24.4631C72.9593 25.8082 72.053 26.7876 70.8982 26.7876ZM72.8423 21.4518H72.7838C72.4039 20.9987 71.6726 20.5894 70.7518 20.5894C68.8222 20.5894 67.0535 22.285 67.0535 24.4631C67.0535 26.6267 68.8222 28.3078 70.7518 28.3078C71.6726 28.3078 72.4039 27.8984 72.7838 27.4309H72.8423V27.9863C72.8423 29.463 72.053 30.2523 70.7812 30.2523C69.7433 30.2523 69.1001 29.5066 68.8367 28.8781L67.3604 29.492C67.7844 30.5153 68.9101 31.7726 70.7812 31.7726C72.7693 31.7726 74.4504 30.6029 74.4504 27.7524V20.8233H72.8423V21.4518ZM75.6198 28.0739H77.3155V16.7301H75.6198V28.0739ZM79.8153 24.3316C79.7714 22.8404 80.9702 22.0805 81.8325 22.0805C82.5055 22.0805 83.0753 22.4165 83.2649 22.8993L79.8153 24.3316ZM85.0779 23.0453C84.7567 22.1826 83.7767 20.5894 81.774 20.5894C79.7859 20.5894 78.1342 22.1536 78.1342 24.4486C78.1342 26.6122 79.7714 28.3078 81.964 28.3078C83.7332 28.3078 84.7567 27.226 85.1804 26.5976L83.8647 25.7203C83.4265 26.3636 82.8267 26.7876 81.964 26.7876C81.1016 26.7876 80.4878 26.3928 80.0929 25.6182L85.253 23.4838L85.0779 23.0453ZM43.9658 21.7735V23.4107H47.8835C47.7665 24.3316 47.4595 25.004 46.9917 25.4719C46.4218 26.0422 45.53 26.6706 43.9658 26.6706C41.5537 26.6706 39.6681 24.7265 39.6681 22.3144C39.6681 19.9024 41.5537 17.958 43.9658 17.958C45.2669 17.958 46.2169 18.4697 46.9186 19.1276L48.0735 17.9729C47.0941 17.0371 45.7929 16.3208 43.9658 16.3208C40.6619 16.3208 37.8845 19.0106 37.8845 22.3144C37.8845 25.6182 40.6619 28.3078 43.9658 28.3078C45.7494 28.3078 47.0941 27.7234 48.1465 26.6267C49.2283 25.5449 49.5647 24.0247 49.5647 22.7969C49.5647 22.4165 49.5356 22.066 49.4768 21.7735H43.9658ZM54.0187 26.7876C52.849 26.7876 51.8402 25.8228 51.8402 24.4486C51.8402 23.0599 52.849 22.1096 54.0187 22.1096C55.1879 22.1096 56.1967 23.0599 56.1967 24.4486C56.1967 25.8228 55.1879 26.7876 54.0187 26.7876ZM54.0187 20.5894C51.8841 20.5894 50.1445 22.212 50.1445 24.4486C50.1445 26.6706 51.8841 28.3078 54.0187 28.3078C56.1528 28.3078 57.8924 26.6706 57.8924 24.4486C57.8924 22.212 56.1528 20.5894 54.0187 20.5894ZM62.4694 26.7876C61.3001 26.7876 60.2913 25.8228 60.2913 24.4486C60.2913 23.0599 61.3001 22.1096 62.4694 22.1096C63.6387 22.1096 64.6474 23.0599 64.6474 24.4486C64.6474 25.8228 63.6387 26.7876 62.4694 26.7876ZM62.4694 20.5894C60.3349 20.5894 58.5956 22.212 58.5956 24.4486C58.5956 26.6706 60.3349 28.3078 62.4694 28.3078C64.6035 28.3078 66.3432 26.6706 66.3432 24.4486C66.3432 22.212 64.6035 20.5894 62.4694 20.5894Z" fill="black"/>
</g>
<defs>
<clipPath id="clip0_240_10749">
<rect width="122.769" height="36.477" fill="white" transform="translate(0.552979 0.761475)"/>
</clipPath>
<clipPath id="clip1_240_10749">
<rect width="122.769" height="36.477" fill="white" transform="translate(0.569336 0.761475)"/>
</clipPath>
</defs>
</svg>
