<svg width="58" height="59" viewBox="0 0 58 59" fill="none" xmlns="http://www.w3.org/2000/svg">
<path d="M21.5205 17.7499C19.6863 17.7499 18.7692 17.7499 17.9306 18.0532C17.8025 18.0996 17.6763 18.151 17.5523 18.2075C16.7407 18.5772 16.0852 19.2186 14.7742 20.5013C13.5108 21.7376 12.879 22.3557 12.4934 23.1261C12.4345 23.2439 12.3801 23.364 12.3303 23.4859C12.0051 24.2837 11.9566 25.1662 11.8596 26.9312L10.3799 53.8624C10.3799 55.026 10.886 56.142 11.787 56.9648C12.688 57.7876 13.91 58.2499 15.1841 58.2499H48.8139C50.0881 58.2499 51.31 57.7876 52.211 56.9648C53.112 56.142 53.6181 55.026 53.6181 53.8624L52.1384 26.9312C52.0414 25.1662 51.9929 24.2837 51.6677 23.4859C51.618 23.364 51.5635 23.2439 51.5046 23.1261C51.119 22.3557 50.4873 21.7376 49.2238 20.5013C47.9128 19.2186 47.2573 18.5772 46.4457 18.2075C46.3218 18.151 46.1956 18.0996 46.0674 18.0532C45.2288 17.7499 44.3117 17.7499 42.4775 17.7499H21.5205Z" fill="#212427"/>
<path d="M40.9101 31.5203C40.9101 33.6685 39.9714 35.7288 38.3004 37.2478C36.6295 38.7669 34.3632 39.6203 32.0001 39.6203C29.637 39.6203 27.3707 38.7669 25.6998 37.2478C24.0288 35.7288 23.0901 33.6685 23.0901 31.5203" stroke="white" stroke-width="2.25" stroke-linecap="round"/>
<path d="M20.1545 23.656H43.847" stroke="white" stroke-width="2.25" stroke-linecap="round"/>
<path d="M55.4 14C55.4527 15.303 56.497 16.3473 57.8 16.4C56.497 16.4527 55.4527 17.497 55.4 18.8C55.3473 17.497 54.303 16.4527 53 16.4C54.303 16.3473 55.3473 15.303 55.4 14Z" fill="#212427"/>
<path d="M7.99995 6.79999C8.17131 11.0348 11.5651 14.4286 15.8 14.6C11.5651 14.7713 8.17131 18.1652 7.99995 22.4C7.82859 18.1652 4.43476 14.7713 0.199951 14.6C4.43476 14.4286 7.82859 11.0348 7.99995 6.79999Z" fill="#212427"/>
<path d="M17.5999 0.799988C17.6922 3.08027 19.5196 4.90772 21.7999 4.99999C19.5196 5.09226 17.6922 6.9197 17.5999 9.19999C17.5076 6.9197 15.6802 5.09226 13.3999 4.99999C15.6802 4.90772 17.5076 3.08027 17.5999 0.799988Z" fill="#212427"/>
</svg>
