<svg width="17" height="16" viewBox="0 0 17 16" fill="none" xmlns="http://www.w3.org/2000/svg">
<g opacity="0.6" clip-path="url(#clip0_1380_1660)">
<path d="M8.79525 0.666626C7.34485 0.666626 5.92703 1.09672 4.72107 1.90252C3.51511 2.70831 2.57518 3.85362 2.02013 5.19361C1.46509 6.53361 1.31987 8.00809 1.60283 9.43062C1.88578 10.8531 2.58422 12.1598 3.6098 13.1854C4.63539 14.211 5.94206 14.9094 7.36459 15.1924C8.78712 15.4753 10.2616 15.3301 11.6016 14.7751C12.9416 14.22 14.0869 13.2801 14.8927 12.0741C15.6985 10.8682 16.1286 9.45036 16.1286 7.99996C16.1286 6.05504 15.356 4.18978 13.9807 2.81451C12.6054 1.43924 10.7402 0.666626 8.79525 0.666626ZM11.1553 10.36C11.093 10.4217 11.0191 10.4706 10.9379 10.5038C10.8566 10.537 10.7697 10.5538 10.6819 10.5533C10.5942 10.5538 10.5072 10.537 10.426 10.5038C10.3448 10.4706 10.2709 10.4217 10.2086 10.36L8.32192 8.47329C8.26013 8.411 8.21125 8.33712 8.17807 8.2559C8.14489 8.17467 8.12808 8.0877 8.12858 7.99996V3.99996C8.12858 3.82315 8.19882 3.65358 8.32385 3.52855C8.44887 3.40353 8.61844 3.33329 8.79525 3.33329C8.97206 3.33329 9.14163 3.40353 9.26666 3.52855C9.39168 3.65358 9.46192 3.82315 9.46192 3.99996V7.72663L11.1553 9.41329C11.2177 9.47527 11.2673 9.549 11.3012 9.63024C11.335 9.71148 11.3524 9.79862 11.3524 9.88663C11.3524 9.97463 11.335 10.0618 11.3012 10.143C11.2673 10.2242 11.2177 10.298 11.1553 10.36Z" fill="black"/>
</g>
<defs>
<clipPath id="clip0_1380_1660">
<rect width="16" height="16" fill="white" transform="translate(0.794922)"/>
</clipPath>
</defs>
</svg>
